<svg viewBox="312.74131274131275 0 874.5173745173745 868.1999999999999" xmlns:xlink="http://www.w3.org/1999/xlink" version="1.1" xmlns="http://www.w3.org/2000/svg" style="max-height: 500px" width="874.5173745173745" height="868.1999999999999"><g transform="matrix(1,0,0,1,-1.8004073184891922,-2.333870967741973)"><svg xmlns:xlink="http://www.w3.org/1999/xlink" xmlns="http://www.w3.org/2000/svg" width="1500" height="1447" preserveAspectRatio="xMidYMid meet" data-background-color="#1d366f" viewBox="0 0 257 248"><g transform="matrix(1,0,0,1,0.30846978723448615,0.4000000000000057)" id="tight-bounds"><svg width="256.383060425531" height="247.2" viewBox="0 0 256.383060425531 247.2"><g><svg width="256.383060425531" height="247.2" viewBox="0 0 395.52 381.3533695936163"><g transform="matrix(1,0,0,1,0,263.0564980221139)"><svg width="395.52" height="118.29687157150241" viewBox="0 0 395.52 118.29687157150241"><g id="textblocktransform"><svg id="textblock" width="395.52" height="118.29687157150241" viewBox="0 0 395.52 118.29687157150241"><g><svg width="395.52" height="79.13923684210525" viewBox="0 0 395.52 79.13923684210525"><g transform="matrix(1,0,0,1,0,0)"><svg data-palette-color="#ffffff" height="79.13923684210525" viewBox="1.5 -36 227.97 45.62037037037037" width="395.52"><path id="text-0" data-fill-palette-color="primary" class="wordmark-text-0" fill="#ffffff" transform="matrix(1,0,0,1,0,0)" opacity="1" d="M19.35-7.05L6.55-7.05 6.55-10.95 19.35-10.95 19.35-7.05ZM10.1-35.25L14.6-35.25 6 0 1.5 0 10.1-35.25ZM10.2-35.25L14.7-35.25 23.3 0 18.85 0 10.2-35.25ZM45.25 0L40.5 0 31.55-13.95 35.9-15.4 45.25 0ZM44.65-25.25L31.7-9 28.2-11.35 39.15-25.25 44.65-25.25ZM32.35 0L27.8 0 27.8-36 32.35-36 32.35 0ZM65.8-8.95L61.25-8.95 61.25-16.3 65.8-16.3 65.8-8.95ZM51.75-8.95L47.2-8.95 47.2-16.3 51.75-16.3 51.75-8.95ZM56.65-22.05L56.35-22.05 56.35-26 56.65-26 56.65-22.05ZM56.65 0.75L56.35 0.75 56.35-3.2 56.65-3.2 56.65 0.75ZM51.75-16.25L47.2-16.25Q47.2-19.05 48.42-21.25 49.65-23.45 51.72-24.73 53.8-26 56.45-26L56.45-26 56.45-22.05Q54.25-22.05 53-20.55 51.75-19.05 51.75-16.25L51.75-16.25ZM65.8-16.25L65.8-16.25 61.25-16.25Q61.25-19.05 60.02-20.55 58.8-22.05 56.55-22.05L56.55-22.05 56.55-26Q59.2-26 61.27-24.73 63.35-23.45 64.57-21.25 65.8-19.05 65.8-16.25ZM47.2-9L47.2-9 51.75-9Q51.75-6.25 53-4.73 54.25-3.2 56.45-3.2L56.45-3.2 56.45 0.75Q53.8 0.75 51.72-0.53 49.65-1.8 48.42-4 47.2-6.2 47.2-9ZM61.25-9L65.8-9Q65.8-6.2 64.57-4 63.35-1.8 61.27-0.53 59.2 0.75 56.55 0.75L56.55 0.75 56.55-3.2Q58.8-3.2 60.02-4.73 61.25-6.25 61.25-9L61.25-9ZM74.99 0L70.44 0 70.44-25.25 74.99-25.25 74.99 0ZM89.04 0L84.49 0 84.49-17.2 89.04-17.2 89.04 0ZM89.04-17.2L84.49-17.2Q84.49-19.3 83.19-20.63 81.89-21.95 79.84-21.95L79.84-21.95 80.99-26Q83.29-26 85.12-24.85 86.94-23.7 87.99-21.7 89.04-19.7 89.04-17.2L89.04-17.2ZM74.99-17.1L72.99-17.1Q72.99-19.65 74.04-21.68 75.09-23.7 76.89-24.85 78.69-26 80.99-26L80.99-26 79.84-21.95Q77.69-21.95 76.34-20.6 74.99-19.25 74.99-17.1L74.99-17.1ZM100.39-7.65L95.84-7.65 95.84-35.3 100.39-35.25 100.39-7.65ZM106.69-21.5L92.94-21.5 92.94-25.25 106.69-25.25 106.69-21.5ZM95.84-7.7L95.84-7.7 100.39-7.7Q100.39-6.25 100.79-5.25 101.19-4.25 101.94-3.73 102.69-3.2 103.74-3.2L103.74-3.2 103.34 0.75Q99.84 0.75 97.84-1.48 95.84-3.7 95.84-7.7ZM106.09-4.05L106.09-4.05 107.89-0.8Q106.89-0.05 105.72 0.35 104.54 0.75 103.34 0.75L103.34 0.75 103.74-3.2Q104.39-3.2 104.97-3.43 105.54-3.65 106.09-4.05ZM128.94 0L124.39 0 124.39-17.2 128.94-17.2 128.94 0ZM118.29 0.75L118.29 0.75 118.64-3Q120.44-3 121.71-3.9 122.99-4.8 123.69-6.55 124.39-8.3 124.39-10.7L124.39-10.7 126.64-10.8Q126.64-7.4 125.54-4.8 124.44-2.2 122.56-0.73 120.69 0.75 118.29 0.75ZM118.64-3L118.29 0.75Q116.04 0.75 114.19-0.3 112.34-1.35 111.24-3.18 110.14-5 110.14-7.25L110.14-7.25 114.44-7.4Q114.44-5.5 115.71-4.25 116.99-3 118.64-3L118.64-3ZM114.44-7.4L110.14-7.25Q110.14-9.6 111.31-11.38 112.49-13.15 114.49-14.2 116.49-15.25 119.04-15.25L119.04-15.25 119.29-11.75Q117.19-11.75 115.81-10.53 114.44-9.3 114.44-7.4L114.44-7.4ZM126.74-11.75L119.29-11.75 119.04-15.25 126.74-15.25 126.74-11.75ZM126.64-10.8L124.39-10.7 124.39-17.15 126.64-17.15 126.64-10.8ZM128.94-17.1L128.94-17.1 124.39-17.1Q124.39-19.3 123.06-20.7 121.74-22.1 119.64-22.1L119.64-22.1 119.64-26Q122.34-26 124.41-24.85 126.49-23.7 127.71-21.68 128.94-19.65 128.94-17.1ZM114.94-17.7L114.94-17.7 110.74-18.55Q111.04-20.8 112.26-22.45 113.49-24.1 115.41-25.05 117.34-26 119.69-26L119.69-26 119.69-22.1Q117.84-22.1 116.51-21.03 115.19-19.95 114.94-17.7ZM138.64-25.2L134.09-25.2 134.09-35.25 138.64-35.25 138.64-25.2ZM138.64-25.25L138.64 0 134.09 0 134.09-25.25 138.64-25.25ZM152.69-17.2L152.69-8.05 148.14-8.05 148.14-17.2 152.69-17.2ZM152.69-17.2L148.14-17.2Q148.14-19.3 146.84-20.63 145.54-21.95 143.49-21.95L143.49-21.95 144.64-26Q146.94-26 148.76-24.85 150.59-23.7 151.64-21.7 152.69-19.7 152.69-17.2L152.69-17.2ZM138.64-17.1L136.64-17.1Q136.64-19.65 137.69-21.68 138.74-23.7 140.54-24.85 142.34-26 144.64-26L144.64-26 143.49-21.95Q141.34-21.95 139.99-20.6 138.64-19.25 138.64-17.1L138.64-17.1ZM148.14-8.05L148.14-8.05 152.69-8.05Q152.69-5.55 151.64-3.55 150.59-1.55 148.76-0.4 146.94 0.75 144.64 0.75L144.64 0.75 143.49-3.3Q145.54-3.3 146.84-4.63 148.14-5.95 148.14-8.05ZM136.64-8.2L136.64-8.2 138.64-8.2Q138.64-6 139.99-4.65 141.34-3.3 143.49-3.3L143.49-3.3 144.64 0.75Q142.34 0.75 140.54-0.43 138.74-1.6 137.69-3.63 136.64-5.65 136.64-8.2ZM162.88 0L158.33 0 158.33-25.25 162.88-25.25 162.88 0ZM160.58-28.6L160.58-28.6Q159.33-28.6 158.48-29.45 157.63-30.3 157.63-31.55L157.63-31.55Q157.63-32.8 158.48-33.68 159.33-34.55 160.58-34.55L160.58-34.55Q161.83-34.55 162.71-33.68 163.58-32.8 163.58-31.55L163.58-31.55Q163.58-30.3 162.71-29.45 161.83-28.6 160.58-28.6ZM174.43 0L169.88 0 169.88-36 174.43-36 174.43 0ZM185.98 0L181.43 0 181.43-25.25 185.98-25.25 185.98 0ZM183.68-28.6L183.68-28.6Q182.43-28.6 181.58-29.45 180.73-30.3 180.73-31.55L180.73-31.55Q180.73-32.8 181.58-33.68 182.43-34.55 183.68-34.55L183.68-34.55Q184.93-34.55 185.8-33.68 186.68-32.8 186.68-31.55L186.68-31.55Q186.68-30.3 185.8-29.45 184.93-28.6 183.68-28.6ZM198.68-7.65L194.13-7.65 194.13-35.3 198.68-35.25 198.68-7.65ZM204.98-21.5L191.23-21.5 191.23-25.25 204.98-25.25 204.98-21.5ZM194.13-7.7L194.13-7.7 198.68-7.7Q198.68-6.25 199.08-5.25 199.48-4.25 200.23-3.73 200.98-3.2 202.03-3.2L202.03-3.2 201.63 0.75Q198.13 0.75 196.13-1.48 194.13-3.7 194.13-7.7ZM204.38-4.05L204.38-4.05 206.18-0.8Q205.18-0.05 204 0.35 202.83 0.75 201.63 0.75L201.63 0.75 202.03-3.2Q202.68-3.2 203.25-3.43 203.83-3.65 204.38-4.05ZM210.12 9.25L210.12 9.25 211.07 5.5Q213.02 6 214.32 5.25 215.62 4.5 216.37 2.15L216.37 2.15 220.57 2.15Q219.07 6.85 216.45 8.55 213.82 10.25 210.12 9.25ZM220.57 2.15L216.37 2.15 224.92-25.25 229.47-25.25 220.57 2.15ZM219.47-4.5L217.22 1.85 208.42-25.25 212.97-25.25 219.47-4.5Z"/></svg></g></svg></g><g transform="matrix(1,0,0,1,75.54432,97.82211131884209)"><svg width="244.43135999999998" height="20.474760252660328" viewBox="0 0 244.43135999999998 20.474760252660328"><g transform="matrix(1,0,0,1,0,0)"><svg data-palette-color="#08c076" height="20.474760252660328" viewBox="1.4 -36 549.10625 46" width="244.43135999999998"><path id="text-1" data-fill-palette-color="secondary" class="slogan-text-1" fill="#08c076" transform="matrix(1,0,0,1,0,0)" opacity="1" d="M16.2-17.25L26.55-35 31-35 18.2-13.45 18.2 0 14.2 0 14.2-13.4 1.4-35 5.85-35 16.2-17.25ZM43.6 0.35L43.6 0.35Q40.05 0.35 37.25-1.2 34.45-2.75 32.85-5.63 31.25-8.5 31.25-12.45L31.25-12.45Q31.25-16.45 32.87-19.35 34.5-22.25 37.32-23.8 40.15-25.35 43.7-25.35L43.7-25.35Q47.25-25.35 50.07-23.8 52.9-22.25 54.52-19.38 56.15-16.5 56.15-12.55L56.15-12.55Q56.15-8.55 54.5-5.65 52.85-2.75 50-1.2 47.15 0.35 43.6 0.35ZM43.55-3.2L43.55-3.2Q45.75-3.2 47.7-4.17 49.65-5.15 50.87-7.23 52.1-9.3 52.1-12.5L52.1-12.5Q52.1-15.75 50.9-17.8 49.7-19.85 47.77-20.83 45.85-21.8 43.65-21.8L43.65-21.8Q41.45-21.8 39.55-20.83 37.65-19.85 36.47-17.78 35.3-15.7 35.3-12.5L35.3-12.5Q35.3-9.25 36.45-7.2 37.6-5.15 39.47-4.17 41.35-3.2 43.55-3.2ZM82.75-25L82.75 0 79.35 0 79.1-3.6Q77.95-1.7 76-0.68 74.05 0.35 71.45 0.35L71.45 0.35Q68.55 0.35 66.4-0.85 64.25-2.05 63.07-4.45 61.9-6.85 61.9-10.5L61.9-10.5 61.9-25 65.6-25 65.6-10.9Q65.6-7.05 67.27-5.08 68.95-3.1 72.1-3.1L72.1-3.1Q75.3-3.1 77.17-5.18 79.05-7.25 79.05-11.45L79.05-11.45 79.05-25 82.75-25ZM104.39 0L104.39-36 108.19-36 108.19-14.15 110.49-14.15 120.34-25 125.64-25 113.84-12.5 125.69 0 120.34 0 110.49-10.9 108.19-10.9 108.19 0 104.39 0ZM139.74 0.35L139.74 0.35Q136.24 0.35 133.51-1.35 130.79-3.05 129.24-6 127.69-8.95 127.69-12.75L127.69-12.75Q127.69-16.4 129.24-19.25 130.79-22.1 133.49-23.73 136.19-25.35 139.64-25.35L139.64-25.35Q143.04-25.35 145.71-23.85 148.39-22.35 149.89-19.7 151.39-17.05 151.29-13.65L151.29-13.65Q151.29-13.1 151.24-12.5 151.19-11.9 151.14-11.2L151.14-11.2 131.79-11.2Q131.89-8.85 132.94-7.05 133.99-5.25 135.71-4.23 137.44-3.2 139.64-3.2L139.64-3.2Q142.54-3.2 144.56-4.3 146.59-5.4 147.49-7.45L147.49-7.45 150.74-6.15Q149.24-3 146.39-1.33 143.54 0.35 139.74 0.35ZM131.84-14.45L147.19-14.45Q147.24-16.6 146.26-18.25 145.29-19.9 143.54-20.85 141.79-21.8 139.49-21.8L139.49-21.8Q137.49-21.8 135.84-20.85 134.19-19.9 133.11-18.23 132.04-16.55 131.84-14.45L131.84-14.45ZM167.94 0.35L167.94 0.35Q164.44 0.35 161.71-1.35 158.99-3.05 157.44-6 155.89-8.95 155.89-12.75L155.89-12.75Q155.89-16.4 157.44-19.25 158.99-22.1 161.69-23.73 164.39-25.35 167.84-25.35L167.84-25.35Q171.24-25.35 173.91-23.85 176.59-22.35 178.09-19.7 179.59-17.05 179.49-13.65L179.49-13.65Q179.49-13.1 179.44-12.5 179.39-11.9 179.34-11.2L179.34-11.2 159.99-11.2Q160.09-8.85 161.14-7.05 162.19-5.25 163.91-4.23 165.64-3.2 167.84-3.2L167.84-3.2Q170.74-3.2 172.76-4.3 174.79-5.4 175.69-7.45L175.69-7.45 178.94-6.15Q177.44-3 174.59-1.33 171.74 0.35 167.94 0.35ZM160.04-14.45L175.39-14.45Q175.44-16.6 174.46-18.25 173.49-19.9 171.74-20.85 169.99-21.8 167.69-21.8L167.69-21.8Q165.69-21.8 164.04-20.85 162.39-19.9 161.31-18.23 160.24-16.55 160.04-14.45L160.04-14.45ZM188.98-5.05L188.98-5.05 189.38-5.1 189.38 10 185.63 10 185.63-25 189.08-25 189.33-20.35Q190.48-22.45 192.73-23.9 194.98-25.35 198.38-25.35L198.38-25.35Q201.63-25.35 204.23-23.78 206.83-22.2 208.33-19.33 209.83-16.45 209.83-12.5L209.83-12.5Q209.83-8.6 208.41-5.73 206.98-2.85 204.41-1.25 201.83 0.35 198.38 0.35L198.38 0.35Q194.78 0.35 192.43-1.2 190.08-2.75 188.98-5.05ZM205.78-12.5L205.78-12.5Q205.78-16.8 203.56-19.33 201.33-21.85 197.58-21.85L197.58-21.85Q195.23-21.85 193.36-20.75 191.48-19.65 190.43-17.55 189.38-15.45 189.38-12.5L189.38-12.5Q189.38-9.6 190.43-7.5 191.48-5.4 193.36-4.28 195.23-3.15 197.58-3.15L197.58-3.15Q201.33-3.15 203.56-5.68 205.78-8.2 205.78-12.5ZM239.13-4.8L246.88-25 250.78-25 236.48 10 232.88 10 237.13-0.35 227.03-25 231.13-25 239.13-4.8ZM265.88 0.35L265.88 0.35Q262.33 0.35 259.53-1.2 256.73-2.75 255.13-5.63 253.53-8.5 253.53-12.45L253.53-12.45Q253.53-16.45 255.15-19.35 256.78-22.25 259.6-23.8 262.43-25.35 265.98-25.35L265.98-25.35Q269.53-25.35 272.35-23.8 275.18-22.25 276.8-19.38 278.43-16.5 278.43-12.55L278.43-12.55Q278.43-8.55 276.78-5.65 275.13-2.75 272.28-1.2 269.43 0.35 265.88 0.35ZM265.83-3.2L265.83-3.2Q268.03-3.2 269.98-4.17 271.93-5.15 273.15-7.23 274.38-9.3 274.38-12.5L274.38-12.5Q274.38-15.75 273.18-17.8 271.98-19.85 270.05-20.83 268.13-21.8 265.93-21.8L265.93-21.8Q263.73-21.8 261.83-20.83 259.93-19.85 258.75-17.78 257.58-15.7 257.58-12.5L257.58-12.5Q257.58-9.25 258.73-7.2 259.88-5.15 261.75-4.17 263.63-3.2 265.83-3.2ZM305.02-25L305.02 0 301.62 0 301.37-3.6Q300.22-1.7 298.27-0.68 296.32 0.35 293.72 0.35L293.72 0.35Q290.82 0.35 288.67-0.85 286.52-2.05 285.35-4.45 284.17-6.85 284.17-10.5L284.17-10.5 284.17-25 287.87-25 287.87-10.9Q287.87-7.05 289.55-5.08 291.22-3.1 294.37-3.1L294.37-3.1Q297.57-3.1 299.45-5.18 301.32-7.25 301.32-11.45L301.32-11.45 301.32-25 305.02-25ZM351.97 0L340.52-31.5 338.87-31.5 327.32 0 323.27 0 336.07-35 343.27-35 356.02 0 351.97 0ZM329.52-9.2L329.52-12.7 349.92-12.7 349.92-9.2 329.52-9.2ZM360.27 0L360.27-36 364.07-36 364.07-14.15 366.37-14.15 376.22-25 381.52-25 369.72-12.5 381.57 0 376.22 0 366.37-10.9 364.07-10.9 364.07 0 360.27 0ZM395.91 0.35L395.91 0.35Q392.36 0.35 389.56-1.2 386.76-2.75 385.16-5.63 383.56-8.5 383.56-12.45L383.56-12.45Q383.56-16.45 385.19-19.35 386.81-22.25 389.64-23.8 392.46-25.35 396.01-25.35L396.01-25.35Q399.56-25.35 402.39-23.8 405.21-22.25 406.84-19.38 408.46-16.5 408.46-12.55L408.46-12.55Q408.46-8.55 406.81-5.65 405.16-2.75 402.31-1.2 399.46 0.35 395.91 0.35ZM395.86-3.2L395.86-3.2Q398.06-3.2 400.01-4.17 401.96-5.15 403.19-7.23 404.41-9.3 404.41-12.5L404.41-12.5Q404.41-15.75 403.21-17.8 402.01-19.85 400.09-20.83 398.16-21.8 395.96-21.8L395.96-21.8Q393.76-21.8 391.86-20.83 389.96-19.85 388.79-17.78 387.61-15.7 387.61-12.5L387.61-12.5Q387.61-9.25 388.76-7.2 389.91-5.15 391.79-4.17 393.66-3.2 395.86-3.2ZM414.61 0L414.61-25 418.06-25 418.26-21.45Q419.46-23.3 421.41-24.33 423.36-25.35 425.96-25.35L425.96-25.35Q428.81-25.35 430.96-24.13 433.11-22.9 434.31-20.48 435.51-18.05 435.51-14.4L435.51-14.4 435.51 0 431.76 0 431.76-13.95Q431.76-17.85 430.09-19.88 428.41-21.9 425.26-21.9L425.26-21.9Q422.01-21.9 420.19-19.75 418.36-17.6 418.36-13.4L418.36-13.4 418.36 0 414.61 0ZM440.61-25L444.36-25 444.36-32 448.11-32 448.11-25 454.76-25 454.76-21.5 448.11-21.5 448.11-8.05Q448.11-5.75 449.08-4.7 450.06-3.65 451.58-3.45 453.11-3.25 454.76-3.45L454.76-3.45 454.76-0.2Q452.81 0.25 450.93 0.05 449.06-0.15 447.58-1.07 446.11-2 445.23-3.7 444.36-5.4 444.36-8.05L444.36-8.05 444.36-21.5 440.61-21.5 440.61-25ZM479.46 0L476.01 0 475.71-4.5Q474.66-2.2 472.61-0.93 470.56 0.35 467.41 0.35L467.41 0.35Q464.71 0.35 462.81-0.5 460.91-1.35 459.88-2.93 458.86-4.5 458.86-6.65L458.86-6.65Q458.86-9.8 461.21-11.83 463.56-13.85 468.01-14.3L468.01-14.3 475.71-15.15 475.71-17.15Q475.71-19.25 474.16-20.53 472.61-21.8 469.96-21.8L469.96-21.8Q467.36-21.8 465.63-20.6 463.91-19.4 463.26-17.15L463.26-17.15 459.86-18.35Q460.86-21.65 463.53-23.5 466.21-25.35 470.06-25.35L470.06-25.35Q474.51-25.35 476.98-23.08 479.46-20.8 479.46-16.9L479.46-16.9 479.46 0ZM475.71-11.15L475.71-11.95 467.96-11.05Q465.46-10.75 464.16-9.68 462.86-8.6 462.86-6.85L462.86-6.85Q462.86-5.1 464.13-4.05 465.41-3 467.81-3L467.81-3Q470.56-3 472.31-4.1 474.06-5.2 474.88-7.08 475.71-8.95 475.71-11.15L475.71-11.15ZM490.5-19.9L490.1-19.95Q491.2-22.25 493.55-23.8 495.9-25.35 499.5-25.35L499.5-25.35Q502.95-25.35 505.53-23.75 508.1-22.15 509.53-19.28 510.95-16.4 510.95-12.5L510.95-12.5Q510.95-8.6 509.5-5.7 508.05-2.8 505.48-1.23 502.9 0.35 499.5 0.35L499.5 0.35Q496.1 0.35 493.85-1.1 491.6-2.55 490.45-4.65L490.45-4.65 490.2 0 486.75 0 486.75-36 490.5-36 490.5-19.9ZM506.9-12.5L506.9-12.5Q506.9-16.8 504.68-19.33 502.45-21.85 498.7-21.85L498.7-21.85Q496.35-21.85 494.48-20.73 492.6-19.6 491.55-17.53 490.5-15.45 490.5-12.5L490.5-12.5Q490.5-9.55 491.55-7.45 492.6-5.35 494.48-4.25 496.35-3.15 498.7-3.15L498.7-3.15Q502.45-3.15 504.68-5.68 506.9-8.2 506.9-12.5ZM517.05 0L517.05-36 520.8-36 520.8 0 517.05 0ZM538.95 0.35L538.95 0.35Q535.45 0.35 532.72-1.35 530-3.05 528.45-6 526.9-8.95 526.9-12.75L526.9-12.75Q526.9-16.4 528.45-19.25 530-22.1 532.7-23.73 535.4-25.35 538.85-25.35L538.85-25.35Q542.25-25.35 544.92-23.85 547.6-22.35 549.1-19.7 550.6-17.05 550.5-13.65L550.5-13.65Q550.5-13.1 550.45-12.5 550.4-11.9 550.35-11.2L550.35-11.2 531-11.2Q531.1-8.85 532.15-7.05 533.2-5.25 534.92-4.23 536.65-3.2 538.85-3.2L538.85-3.2Q541.75-3.2 543.77-4.3 545.8-5.4 546.7-7.45L546.7-7.45 549.95-6.15Q548.45-3 545.6-1.33 542.75 0.35 538.95 0.35ZM531.05-14.45L546.4-14.45Q546.45-16.6 545.47-18.25 544.5-19.9 542.75-20.85 541-21.8 538.7-21.8L538.7-21.8Q536.7-21.8 535.05-20.85 533.4-19.9 532.32-18.23 531.25-16.55 531.05-14.45L531.05-14.45Z"/></svg></g></svg></g></svg></g></svg></g><g transform="matrix(1,0,0,1,84.91462546567989,0)"><svg width="225.6907490686402" height="225.6907490686402" viewBox="0 0 225.6907490686402 225.6907490686402"><g><svg/></g><g id="icon-0"><svg width="225.6907490686402" height="225.6907490686402" viewBox="0 0 225.6907490686402 225.6907490686402"><g><path stroke="transparent" fill="#08c076" data-fill-palette-color="accent" d="M0 112.845c0-62.323 50.523-112.845 112.845-112.845 62.323 0 112.845 50.523 112.846 112.845 0 62.323-50.523 112.845-112.846 112.846-62.323 0-112.845-50.523-112.845-112.846zM112.845 218.554c58.381 0 105.709-47.327 105.709-105.709 0-58.381-47.327-105.709-105.709-105.708-58.381 0-105.709 47.327-105.708 105.708 0 58.381 47.327 105.709 105.708 105.709z"/><ellipse data-fill-palette-color="accent" fill-opacity="1" stroke-width="0" stroke="transparent" fill="#08c076" cy="112.8453745343201" cx="112.8453745343201" ry="111.71692078897689" rx="111.71692078897689"/></g><g transform="matrix(1,0,0,1,49.04775697781814,49.04775697781814)"><svg width="127.59523511300392" height="127.59523511300392" viewBox="0 0 127.59523511300392 127.59523511300392"><g><svg id="dxe-0" data-fill-palette-color="quaternary" class="icon-dxe-0" width="127.59523511300392" height="127.59523511300392" xml:space="preserve" style="enable-background:new 0 0 64 64;" viewBox="2 2 60 60" y="0" x="0" version="1.1" xmlns:xlink="http://www.w3.org/1999/xlink" xmlns="http://www.w3.org/2000/svg"><path data-fill-palette-color="quaternary" fill="#1d366f" d="M49 28H47A1 1 0 0 0 46 29V31.262A8 8 0 0 0 43.942 32.114L42.343 30.515A1 1 0 0 0 40.929 30.515L39.515 31.929A1 1 0 0 0 39.515 33.343L41.114 34.942A8 8 0 0 0 40.262 37H38A1 1 0 0 0 37 38V40A1 1 0 0 0 38 41H40.262C40.451 41.732 40.739 42.422 41.114 43.058L39.515 44.657A1 1 0 0 0 39.515 46.071L40.929 47.485A1 1 0 0 0 42.343 47.485L43.942 45.886A8 8 0 0 0 46 46.738V49A1 1 0 0 0 47 50H49A1 1 0 0 0 50 49V46.738A8 8 0 0 0 52.058 45.886L53.657 47.485A1 1 0 0 0 55.071 47.485L56.485 46.071A1 1 0 0 0 56.485 44.657L54.886 43.058A8 8 0 0 0 55.738 41H58A1 1 0 0 0 59 40V38A1 1 0 0 0 58 37H55.738A8 8 0 0 0 54.886 34.942L56.485 33.343A1 1 0 0 0 56.485 31.929L55.071 30.515A1 1 0 0 0 53.657 30.515L52.058 32.114A8 8 0 0 0 50 31.262V29A1 1 0 0 0 49 28M52 39A4 4 0 1 1 44 39 4 4 0 0 1 52 39"/><path data-fill-palette-color="quaternary" fill="#1d366f" d="M21 34.738A8 8 0 0 0 23.058 33.886L24.657 35.485A1 1 0 0 0 26.071 35.485L27.485 34.071A1 1 0 0 0 27.485 32.657L25.886 31.058A8 8 0 0 0 26.738 29H29A1 1 0 0 0 30 28V26A1 1 0 0 0 29 25H26.738A8 8 0 0 0 25.886 22.942L27.485 21.343A1 1 0 0 0 27.485 19.929L26.071 18.515A1 1 0 0 0 24.657 18.515L23.058 20.114A8 8 0 0 0 21 19.262V17A1 1 0 0 0 20 16H18A1 1 0 0 0 17 17V19.262A8 8 0 0 0 14.942 20.114L13.343 18.515A1 1 0 0 0 11.929 18.515L10.515 19.929A1 1 0 0 0 10.515 21.343L12.114 22.942A8 8 0 0 0 11.262 25H9A1 1 0 0 0 8 26V28A1 1 0 0 0 9 29H11.262C11.451 29.732 11.739 30.422 12.114 31.058L10.515 32.657A1 1 0 0 0 10.515 34.071L11.929 35.485A1 1 0 0 0 13.343 35.485L14.942 33.886A8 8 0 0 0 17 34.738V37A1 1 0 0 0 18 38H20A1 1 0 0 0 21 37zM19 31A4 4 0 1 1 19 23 4 4 0 0 1 19 31"/><polygon data-fill-palette-color="quaternary" fill="#1d366f" points="55,2 52.837,6.608 48,7.347 51.5,10.935 50.674,16 55,13.608 59.326,16 58.5,10.935 62,7.347 57.163,6.608"/><path data-fill-palette-color="quaternary" fill="#1d366f" d="M21 50V48H18C16.346 48 15 46.654 15 45V40H13V45C13 47.757 15.243 50 18 50z"/><path data-fill-palette-color="quaternary" fill="#1d366f" d="M47 56C47 57.654 45.654 59 44 59H42V61H44C46.757 61 49 58.757 49 56V53H47z"/><path data-fill-palette-color="quaternary" fill="#1d366f" d="M44 19H31V21H44C45.654 21 47 22.346 47 24V25H49V24C49 21.243 46.757 19 44 19"/><path data-fill-palette-color="quaternary" fill="#1d366f" d="M18 59H7C5.346 59 4 57.654 4 56V13C4 11.346 5.346 10 7 10H37V13L44 9 37 5V8H7C4.243 8 2 10.243 2 13V56C2 58.757 4.243 61 7 61H18z"/><circle data-fill-palette-color="quaternary" fill="#1d366f" r="5.0" cy="46" cx="30"/><path data-fill-palette-color="quaternary" fill="#1d366f" d="M38 55C38 52.791 36.408 51 34.444 51H25.556C23.592 51 22 52.791 22 55V62H38z"/></svg></g></svg></g></svg></g></svg></g><g/></svg></g><defs/></svg><rect visibility="hidden" stroke="none" fill="none" height="247.2" width="256.383060425531"/></g></svg></g></svg>